Coordinates
version=1
nRows=38
nColumns=12
inDegrees=yes

Units are S.I. units (second, meters, Newtons, ...)
Angles are in degrees

endheader
time	SC_y	SC_z	SC_x	AC_y	AC_z	AC_x	GH_y	GH_z	GH_yy	EL_x	PS_y
       0.0              -29.14          36.53          49.35          31.59          3.271         -9.479          14.24           30.9           76.0          56.43          17.75
  0.002729              -29.13          36.53          49.35          31.59           3.27         -9.476          14.24           30.9           76.0          56.43          17.76
  0.005459              -29.13          36.52          49.35          31.59          3.269         -9.472          14.24          30.91          75.99          56.43          17.78
  0.008188              -29.13          36.52          49.36          31.59          3.268         -9.469          14.24          30.92          75.98          56.44          17.79
   0.01092              -29.13          36.51          49.36          31.59          3.266         -9.465          14.24          30.93          75.97          56.44          17.81
   0.01365              -29.12           36.5          49.37          31.59          3.265         -9.462          14.24          30.94          75.96          56.45          17.83
   0.01638              -29.12           36.5          49.37          31.59          3.263         -9.458          14.24          30.96          75.95          56.45          17.85
   0.01911              -29.12          36.49          49.37          31.59          3.261         -9.453          14.24          30.97          75.94          56.46          17.87
   0.02183              -29.11          36.48          49.38          31.59          3.259         -9.448          14.24          30.98          75.93          56.46           17.9
   0.02456              -29.11          36.47          49.39          31.59          3.257         -9.443          14.24          30.99          75.92          56.47          17.92
   0.02729               -29.1          36.46          49.39          31.59          3.255         -9.438          14.24          31.01          75.91          56.48          17.95
   0.03002               -29.1          36.45           49.4          31.59          3.253         -9.432          14.24          31.03          75.89          56.49          17.98
   0.03275              -29.09          36.44          49.41          31.59           3.25         -9.426          14.24          31.04          75.88          56.49          18.01
   0.03548              -29.09          36.43          49.41          31.59          3.248         -9.419          14.23          31.06          75.86           56.5          18.05
   0.03821              -29.08          36.42          49.42          31.59          3.245         -9.412          14.23          31.08          75.84          56.51          18.08
   0.04094              -29.08          36.41          49.43          31.59          3.242         -9.404          14.23          31.11          75.82          56.52          18.12
   0.04367              -29.07          36.39          49.44          31.59          3.238         -9.395          14.23          31.13           75.8          56.53          18.17
    0.0464              -29.06          36.38          49.45          31.58          3.234         -9.386          14.23          31.16          75.78          56.55          18.21
   0.04913              -29.05          36.36          49.46          31.58           3.23         -9.376          14.23          31.19          75.75          56.56          18.27
   0.05186              -29.05          36.34          49.47          31.58          3.226         -9.365          14.23          31.22          75.73          56.57          18.32
   0.05459              -29.04          36.32          49.49          31.58          3.221         -9.352          14.23          31.25           75.7          56.59          18.39
   0.05732              -29.03           36.3           49.5          31.58          3.216         -9.339          14.23          31.29          75.66          56.61          18.45
   0.06005              -29.01          36.27          49.52          31.58           3.21         -9.324          14.23          31.33          75.63          56.63          18.53
   0.06278               -29.0          36.24          49.54          31.58          3.203         -9.307          14.23          31.38          75.59          56.65          18.62
    0.0655              -28.99          36.21          49.56          31.58          3.196         -9.289          14.23          31.43          75.54          56.67          18.71
   0.06823              -28.97          36.18          49.58          31.58          3.187         -9.268          14.23          31.49          75.49           56.7          18.81
   0.07096              -28.95          36.14          49.61          31.58          3.178         -9.245          14.23          31.55          75.44          56.73          18.93
   0.07369              -28.93          36.09          49.64          31.58          3.168         -9.219          14.23          31.63          75.37          56.76          19.06
   0.07642              -28.91          36.04          49.67          31.58          3.156          -9.19          14.22          31.71           75.3           56.8          19.21
   0.07915              -28.88          35.99          49.71          31.57          3.143         -9.156          14.22           31.8          75.22          56.84          19.38
   0.08188              -28.85          35.92          49.75          31.57          3.128         -9.118          14.22          31.91          75.13          56.89          19.57
   0.08461              -28.82          35.85           49.8          31.57           3.11         -9.075          14.22          32.03          75.02          56.95          19.79
   0.08734              -28.78          35.76          49.85          31.57           3.09         -9.025          14.22          32.18           74.9          57.02          20.05
   0.09007              -28.73          35.66          49.92          31.56          3.067         -8.966          14.22          32.34          74.76          57.09          20.35
    0.0928              -28.68          35.55           50.0          31.56          3.039         -8.898          14.21          32.53          74.59          57.18          20.69
   0.09553              -28.61          35.41          50.09          31.56          3.007         -8.817          14.21          32.76          74.39          57.29           21.1
   0.09826              -28.54          35.25          50.19          31.55          2.969         -8.721           14.2          33.03          74.16          57.41          21.59
     0.101              -28.45          35.06          50.32          31.55          2.923         -8.606           14.2          33.36          73.88          57.56          22.17
